#!OML:ASF F:\VICON\USERDATA\INSTALL\rory3\rory3.ASF
:FULLY-SPECIFIED
:DEGREES
55
root 0.010104228552982042 18.353743166314278 29.66896482363922 4.338839383437695 3.251148452058993 -4.9685898402752
lfemur -40.97552345831006 -2.1285559210096903 -17.008079172955256
ltibia 47.2504084602119
lfoot -1.897363173404123 -8.570108368582245
ltoes -15.530698056886898
rfemur 15.924894347829454 3.093994133043655 34.24511207718305
rtibia 37.33094548167537
rfoot 24.840672406928526 0.5855940857741384
rtoes 8.543303884629257
lowerback 12.796526695951972 2.7855288659563318 6.797923535559739
upperback -2.0957821914954553 4.929675953924944 1.3703153064681959
thorax -8.891344719945069 2.034409830717435 -4.1621240045857135
lowerneck -19.147253747722907 -5.220191007175429 -1.9933136270951097
upperneck 14.829642597380154 -7.132845531966655 2.8732268761502
head 7.889180076036561 -3.2132347280063405 0.4075567301399167
lclavicle -1.5226793645216279e-15 1.933158466521886e-15
lhumerus -72.03451438358044 -6.396845939365192 96.55011738288287
lradius 104.54160026007045
lwrist 33.751070620062514
lhand -24.99338233625282 3.8330759834032064
lfingers 7.12502
lthumb 1.5178375864483877 33.80368818131386
rclavicle -1.5226793645216279e-15 1.933158466521886e-15
rhumerus -38.78032972563395 14.323003001400448 -94.38850377063335
rradius 116.6488566079019
rwrist -11.249836300111006
rhand -15.238271096727694 39.32979226634376
rfingers 7.12502
rthumb 10.93448036686099 10.97651290215579
56
root 0.02147088127643318 18.44222054750636 30.61602696318328 4.366376673899148 3.2446414284533955 -4.984687726496244
lfemur -38.962832258613574 -2.2011117710928776 -17.746679110110037
ltibia 38.71647389168377
lfoot -0.6609331213784237 -9.599547253952485
ltoes -15.740690510797814
rfemur 16.387325056680634 4.360995374209377 34.36336387957811
rtibia 39.22113525948899
rfoot 27.878690984447154 0.29019091006419373
rtoes 13.095461870654072
lowerback 12.332389201240016 2.962518367487129 6.853038213812302
upperback -2.2805546968299346 5.1288978548825135 1.168385966487219
thorax -8.726554796831966 2.1261240860244093 -4.463285607692612
lowerneck -19.03284767311506 -5.267852530464113 -2.0795372928011115
upperneck 15.252666083898886 -7.222846849210113 2.9950797719530438
head 8.01367786961101 -3.241768000455357 0.4509234536918419
lclavicle -1.690205730767364e-15 1.811646082512859e-15
lhumerus -73.38220410524788 -5.148703091512676 95.66058087464248
lradius 106.0649127117438
lwrist 33.384861990595915
lhand -25.156138697524618 3.213280294475018
lfingers 7.12502
lthumb 1.3606441374398321 33.18654403590639
rclavicle -1.690205730767364e-15 1.811646082512859e-15
rhumerus -39.26949909164549 14.695118482196992 -94.741591713289
rradius 116.2417284205864
rwrist -11.266916243273199
rhand -15.14287757818176 39.14342019250741
rfingers 7.12502
rthumb 11.02666399675992 10.949304166758049
57
root 0.02405691804255436 18.483384565160854 31.683313095510897 4.262681329089174 3.207843151427878 -5.0599564428753485
lfemur -36.64246553943717 -1.8622566077736151 -18.339807263769128
ltibia 32.258965398894844
lfoot 0.8346832332521767 -10.204112078724414
ltoes -15.94691303970458
rfemur 16.08770204671409 5.440542037871497 34.654343937172
rtibia 43.258802263186716
rfoot 28.508786630559555 -0.7207612028466066
rtoes 15.812416045871835
lowerback 12.171056016126313 3.0940880894665517 6.900122782990676
upperback -2.3369746804667164 5.293102532008504 1.0865724414614224
thorax -8.632406597234755 2.2028837220311255 -4.582998824202408
lowerneck -19.037110450147818 -5.26398607880698 -2.1706579765754617
upperneck 15.498236345717192 -7.226829976078039 3.131538524406191
head 8.104327889827683 -3.2306248688664203 0.5097162684409526
lclavicle -1.5619525636303442e-15 1.90467231421269e-15
lhumerus -73.96141441013565 -4.245527513301434 95.11506577150494
lradius 107.74685411670559
lwrist 32.92787981173375
lhand -24.98811380730656 2.417843997409268
lfingers 7.12502
lthumb 1.5229097327881087 32.38712776157075
rclavicle -1.5619525636303442e-15 1.90467231421269e-15
rhumerus -39.62871568403753 15.08739101237111 -95.07347252639953
rradius 115.70930545846527
rwrist -11.188471142410746
rhand -15.349505689890412 39.03704374370061
rfingers 7.12502
rthumb 10.827609399092747 10.80087424387232
58
root 0.019849372645517893 18.47915718711234 32.476812528493326 3.9554576910091286 3.2217252975919917 -5.174611135768394
lfemur -34.640293856561875 -1.3866259193376556 -18.941108844189596
ltibia 27.494931616702875
lfoot 2.0197674909937837 -10.618756297856168
ltoes -16.22779013716208
rfemur 15.063761724965186 6.0237007217979475 34.837260023764124
rtibia 48.424478847753235
rfoot 27.52445447829465 -2.2561692110023515
rtoes 16.812465495944444
lowerback 12.240307326192092 3.1522697942803215 6.841617772519842
upperback -2.279604621728038 5.3658043411015885 1.0656712088988267
thorax -8.608678642535642 2.241473011766963 -4.5946122897342425
lowerneck -19.09310022431048 -5.243049139185727 -2.2651902585419803
upperneck 15.531037814076434 -7.195101643226526 3.2444725996421164
head 8.137993819534593 -3.20661306718676 0.5697181451095693
lclavicle -1.6307192641727692e-15 1.8547935675323244e-15
lhumerus -74.16274908714804 -3.6841774304693793 94.89463455381947
lradius 109.22921564504193
lwrist 32.3674173940438
lhand -24.724899137553404 1.6961279473464215
lfingers 7.12502
lthumb 1.7771179996581763 31.659979785021616
rclavicle -1.6307192641727692e-15 1.8547935675323244e-15
rhumerus -39.993869477968964 15.379514874932383 -95.41875490052676
rradius 114.97831623490461
rwrist -11.070459707602081
rhand -15.756580328198936 38.96086315909659
rfingers 7.12502
rthumb 10.43515047351198 10.550285848075676
59
root 0.007937183089783528 18.425901356574272 33.29510263056932 3.460671783072691 3.374603852397081 -5.216810193540962
lfemur -32.66101253265776 -0.939819221301043 -19.58829052308289
ltibia 24.601020042023592
lfoot 2.5788111523443265 -10.983212658559538
ltoes -15.883507600906917
rfemur 13.440033989732374 5.9779092679360435 34.71325070799388
rtibia 54.7413337315522
rfoot 25.79832932847288 -4.066860060621672
rtoes 16.573469513013322
lowerback 12.518751767167693 3.1355417167483917 6.616263587618275
upperback -2.1155583133293634 5.326832958304191 1.0683324183791703
thorax -8.646132338326382 2.2345135948539485 -4.45015647490226
lowerneck -19.139388847516805 -5.199772610354203 -2.3548731446525424
upperneck 15.391317428947943 -7.123981252998384 3.337648423223762
head 8.117525039875996 -3.1682294557170483 0.6324753595378589
lclavicle -1.6891826573110456e-15 1.8123881525944158e-15
lhumerus -73.79209933040093 -3.388431333914438 94.98499083983532
lradius 110.41728393484559
lwrist 31.762142245275086
lhand -24.52743806534139 1.235435392291746
lfingers 7.12502
lthumb 1.9678373825000266 31.19703426250286
rclavicle -1.6891826573110456e-15 1.8123881525944158e-15
rhumerus -40.404240969110646 15.489017667821027 -95.79999403738904
rradius 114.03567210180275
rwrist -10.896966436954658
rhand -16.196548807837207 38.909840718173825
rfingers 7.12502
rthumb 10.010830611626542 10.266701026129251
